<mxfile host="app.diagrams.net" modified="2023-04-23T08:40:51.881Z" agent="Mozilla/5.0 (Windows NT 10.0; Win64; x64) AppleWebKit/537.36 (KHTML, like Gecko) Chrome/112.0.0.0 Safari/537.36 Edg/112.0.1722.48" etag="-t0pzjzFeErqeRQkl4EG" version="21.2.1" type="device">
  <diagram name="Page-1" id="LeH7iFrrdlT8JMITQynl">
    <mxGraphModel dx="993" dy="573" grid="1" gridSize="10" guides="1" tooltips="1" connect="1" arrows="1" fold="1" page="1" pageScale="1" pageWidth="850" pageHeight="1100" math="0" shadow="0">
      <root>
        <mxCell id="0" />
        <mxCell id="1" parent="0" />
        <mxCell id="RiBAbJlhbOir_Ix7eyt6-25" style="edgeStyle=orthogonalEdgeStyle;rounded=0;orthogonalLoop=1;jettySize=auto;html=1;entryX=1;entryY=0.5;entryDx=0;entryDy=0;" parent="1" source="RiBAbJlhbOir_Ix7eyt6-3" target="RiBAbJlhbOir_Ix7eyt6-21" edge="1">
          <mxGeometry relative="1" as="geometry" />
        </mxCell>
        <mxCell id="RiBAbJlhbOir_Ix7eyt6-26" style="edgeStyle=orthogonalEdgeStyle;rounded=0;orthogonalLoop=1;jettySize=auto;html=1;entryX=0.5;entryY=0;entryDx=0;entryDy=0;" parent="1" target="RiBAbJlhbOir_Ix7eyt6-20" edge="1">
          <mxGeometry relative="1" as="geometry">
            <mxPoint x="380" y="820" as="sourcePoint" />
            <Array as="points">
              <mxPoint x="380" y="920" />
              <mxPoint x="270" y="920" />
            </Array>
          </mxGeometry>
        </mxCell>
        <mxCell id="RiBAbJlhbOir_Ix7eyt6-31" style="edgeStyle=orthogonalEdgeStyle;rounded=0;orthogonalLoop=1;jettySize=auto;html=1;entryX=1;entryY=0.5;entryDx=0;entryDy=0;" parent="1" source="RiBAbJlhbOir_Ix7eyt6-3" target="RiBAbJlhbOir_Ix7eyt6-7" edge="1">
          <mxGeometry relative="1" as="geometry">
            <Array as="points">
              <mxPoint x="370" y="690" />
            </Array>
          </mxGeometry>
        </mxCell>
        <mxCell id="RiBAbJlhbOir_Ix7eyt6-34" style="edgeStyle=orthogonalEdgeStyle;rounded=0;orthogonalLoop=1;jettySize=auto;html=1;entryX=1;entryY=1;entryDx=0;entryDy=0;" parent="1" source="RiBAbJlhbOir_Ix7eyt6-3" target="RiBAbJlhbOir_Ix7eyt6-8" edge="1">
          <mxGeometry relative="1" as="geometry">
            <Array as="points">
              <mxPoint x="400" y="680" />
              <mxPoint x="375" y="680" />
            </Array>
          </mxGeometry>
        </mxCell>
        <mxCell id="RiBAbJlhbOir_Ix7eyt6-35" style="edgeStyle=orthogonalEdgeStyle;rounded=0;orthogonalLoop=1;jettySize=auto;html=1;entryX=0.5;entryY=1;entryDx=0;entryDy=0;" parent="1" source="RiBAbJlhbOir_Ix7eyt6-3" target="RiBAbJlhbOir_Ix7eyt6-9" edge="1">
          <mxGeometry relative="1" as="geometry" />
        </mxCell>
        <mxCell id="RiBAbJlhbOir_Ix7eyt6-36" style="edgeStyle=orthogonalEdgeStyle;rounded=0;orthogonalLoop=1;jettySize=auto;html=1;entryX=0;entryY=0.5;entryDx=0;entryDy=0;exitX=1;exitY=0;exitDx=0;exitDy=0;" parent="1" source="RiBAbJlhbOir_Ix7eyt6-3" target="RiBAbJlhbOir_Ix7eyt6-10" edge="1">
          <mxGeometry relative="1" as="geometry">
            <Array as="points">
              <mxPoint x="471" y="650" />
            </Array>
          </mxGeometry>
        </mxCell>
        <mxCell id="RiBAbJlhbOir_Ix7eyt6-37" style="edgeStyle=orthogonalEdgeStyle;rounded=0;orthogonalLoop=1;jettySize=auto;html=1;entryX=0;entryY=0.5;entryDx=0;entryDy=0;" parent="1" source="RiBAbJlhbOir_Ix7eyt6-3" target="RiBAbJlhbOir_Ix7eyt6-11" edge="1">
          <mxGeometry relative="1" as="geometry" />
        </mxCell>
        <mxCell id="RiBAbJlhbOir_Ix7eyt6-47" style="edgeStyle=orthogonalEdgeStyle;rounded=0;orthogonalLoop=1;jettySize=auto;html=1;entryX=0.5;entryY=1;entryDx=0;entryDy=0;" parent="1" source="RiBAbJlhbOir_Ix7eyt6-3" target="RiBAbJlhbOir_Ix7eyt6-17" edge="1">
          <mxGeometry relative="1" as="geometry">
            <Array as="points">
              <mxPoint x="425" y="620" />
              <mxPoint x="405" y="620" />
            </Array>
          </mxGeometry>
        </mxCell>
        <mxCell id="RiBAbJlhbOir_Ix7eyt6-3" value="&lt;font style=&quot;font-size: 15px;&quot;&gt;1.0&lt;br&gt;Comic Corner&lt;/font&gt;" style="ellipse;whiteSpace=wrap;html=1;aspect=fixed;" parent="1" vertex="1">
          <mxGeometry x="360" y="710" width="130" height="130" as="geometry" />
        </mxCell>
        <mxCell id="RiBAbJlhbOir_Ix7eyt6-28" style="edgeStyle=orthogonalEdgeStyle;rounded=0;orthogonalLoop=1;jettySize=auto;html=1;entryX=0.5;entryY=1;entryDx=0;entryDy=0;" parent="1" source="RiBAbJlhbOir_Ix7eyt6-4" target="RiBAbJlhbOir_Ix7eyt6-3" edge="1">
          <mxGeometry relative="1" as="geometry" />
        </mxCell>
        <mxCell id="RiBAbJlhbOir_Ix7eyt6-4" value="&lt;font style=&quot;font-size: 14px;&quot;&gt;&lt;span style=&quot;white-space: pre;&quot;&gt;&lt;span style=&quot;white-space: pre;&quot;&gt;	&lt;/span&gt; &lt;/span&gt;popularIssues&lt;/font&gt;" style="html=1;dashed=0;whiteSpace=wrap;shape=mxgraph.dfd.dataStoreID;align=left;spacingLeft=3;points=[[0,0],[0.5,0],[1,0],[0,0.5],[1,0.5],[0,1],[0.5,1],[1,1]];" parent="1" vertex="1">
          <mxGeometry x="325" y="980" width="150" height="30" as="geometry" />
        </mxCell>
        <mxCell id="RiBAbJlhbOir_Ix7eyt6-29" style="edgeStyle=orthogonalEdgeStyle;rounded=0;orthogonalLoop=1;jettySize=auto;html=1;entryX=1;entryY=1;entryDx=0;entryDy=0;" parent="1" source="RiBAbJlhbOir_Ix7eyt6-5" target="RiBAbJlhbOir_Ix7eyt6-3" edge="1">
          <mxGeometry relative="1" as="geometry" />
        </mxCell>
        <mxCell id="RiBAbJlhbOir_Ix7eyt6-5" value="&lt;font style=&quot;font-size: 14px;&quot;&gt;&lt;span style=&quot;white-space: pre;&quot;&gt;&lt;span style=&quot;white-space: pre;&quot;&gt;	&lt;/span&gt; &lt;/span&gt;trendingIssues&lt;/font&gt;" style="html=1;dashed=0;whiteSpace=wrap;shape=mxgraph.dfd.dataStoreID;align=left;spacingLeft=3;points=[[0,0],[0.5,0],[1,0],[0,0.5],[1,0.5],[0,1],[0.5,1],[1,1]];" parent="1" vertex="1">
          <mxGeometry x="485" y="1055" width="140" height="30" as="geometry" />
        </mxCell>
        <mxCell id="RiBAbJlhbOir_Ix7eyt6-30" style="edgeStyle=orthogonalEdgeStyle;rounded=0;orthogonalLoop=1;jettySize=auto;html=1;entryX=1;entryY=1;entryDx=0;entryDy=0;" parent="1" source="RiBAbJlhbOir_Ix7eyt6-6" target="RiBAbJlhbOir_Ix7eyt6-3" edge="1">
          <mxGeometry relative="1" as="geometry">
            <Array as="points">
              <mxPoint x="705" y="930" />
              <mxPoint x="500" y="930" />
              <mxPoint x="500" y="821" />
            </Array>
          </mxGeometry>
        </mxCell>
        <mxCell id="RiBAbJlhbOir_Ix7eyt6-6" value="&lt;font style=&quot;font-size: 14px;&quot;&gt;&lt;span style=&quot;white-space: pre;&quot;&gt;&lt;span style=&quot;white-space: pre;&quot;&gt;	&lt;/span&gt; &lt;/span&gt;latestIssues&lt;/font&gt;" style="html=1;dashed=0;whiteSpace=wrap;shape=mxgraph.dfd.dataStoreID;align=left;spacingLeft=3;points=[[0,0],[0.5,0],[1,0],[0,0.5],[1,0.5],[0,1],[0.5,1],[1,1]];" parent="1" vertex="1">
          <mxGeometry x="635" y="980" width="140" height="30" as="geometry" />
        </mxCell>
        <mxCell id="RiBAbJlhbOir_Ix7eyt6-42" style="edgeStyle=orthogonalEdgeStyle;rounded=0;orthogonalLoop=1;jettySize=auto;html=1;entryX=0.5;entryY=1;entryDx=0;entryDy=0;" parent="1" source="RiBAbJlhbOir_Ix7eyt6-7" target="RiBAbJlhbOir_Ix7eyt6-12" edge="1">
          <mxGeometry relative="1" as="geometry" />
        </mxCell>
        <mxCell id="RiBAbJlhbOir_Ix7eyt6-7" value="&lt;font style=&quot;font-size: 15px;&quot;&gt;2.0&lt;br&gt;Get&lt;br&gt;Popular&lt;br&gt;Comics&lt;br&gt;&lt;/font&gt;" style="ellipse;whiteSpace=wrap;html=1;aspect=fixed;" parent="1" vertex="1">
          <mxGeometry x="225" y="640" width="100" height="100" as="geometry" />
        </mxCell>
        <mxCell id="RiBAbJlhbOir_Ix7eyt6-43" style="edgeStyle=orthogonalEdgeStyle;rounded=0;orthogonalLoop=1;jettySize=auto;html=1;entryX=1;entryY=0.5;entryDx=0;entryDy=0;" parent="1" source="RiBAbJlhbOir_Ix7eyt6-8" target="RiBAbJlhbOir_Ix7eyt6-12" edge="1">
          <mxGeometry relative="1" as="geometry" />
        </mxCell>
        <mxCell id="RiBAbJlhbOir_Ix7eyt6-44" style="edgeStyle=orthogonalEdgeStyle;rounded=0;orthogonalLoop=1;jettySize=auto;html=1;entryX=0.5;entryY=0;entryDx=0;entryDy=0;exitX=0.5;exitY=0;exitDx=0;exitDy=0;" parent="1" source="RiBAbJlhbOir_Ix7eyt6-9" target="RiBAbJlhbOir_Ix7eyt6-12" edge="1">
          <mxGeometry relative="1" as="geometry">
            <Array as="points">
              <mxPoint x="460" y="500" />
              <mxPoint x="130" y="500" />
            </Array>
          </mxGeometry>
        </mxCell>
        <mxCell id="RiBAbJlhbOir_Ix7eyt6-8" value="&lt;font style=&quot;font-size: 15px;&quot;&gt;2.0&lt;br&gt;Get&lt;br&gt;Trending Comics&lt;br&gt;&lt;/font&gt;" style="ellipse;whiteSpace=wrap;html=1;aspect=fixed;" parent="1" vertex="1">
          <mxGeometry x="290" y="550" width="100" height="100" as="geometry" />
        </mxCell>
        <mxCell id="RiBAbJlhbOir_Ix7eyt6-9" value="&lt;font style=&quot;font-size: 15px;&quot;&gt;2.0&lt;br&gt;Get&lt;br&gt;Latest&lt;br&gt;Comics&lt;br&gt;&lt;/font&gt;" style="ellipse;whiteSpace=wrap;html=1;aspect=fixed;" parent="1" vertex="1">
          <mxGeometry x="410" y="520" width="100" height="100" as="geometry" />
        </mxCell>
        <mxCell id="RiBAbJlhbOir_Ix7eyt6-39" style="edgeStyle=orthogonalEdgeStyle;rounded=0;orthogonalLoop=1;jettySize=auto;html=1;entryX=1;entryY=0;entryDx=0;entryDy=0;" parent="1" source="RiBAbJlhbOir_Ix7eyt6-10" target="RiBAbJlhbOir_Ix7eyt6-3" edge="1">
          <mxGeometry relative="1" as="geometry" />
        </mxCell>
        <mxCell id="RiBAbJlhbOir_Ix7eyt6-40" style="edgeStyle=orthogonalEdgeStyle;rounded=0;orthogonalLoop=1;jettySize=auto;html=1;entryX=0.5;entryY=1;entryDx=0;entryDy=0;exitX=1;exitY=0.5;exitDx=0;exitDy=0;" parent="1" source="RiBAbJlhbOir_Ix7eyt6-10" target="RiBAbJlhbOir_Ix7eyt6-13" edge="1">
          <mxGeometry relative="1" as="geometry" />
        </mxCell>
        <mxCell id="RiBAbJlhbOir_Ix7eyt6-10" value="&lt;font style=&quot;font-size: 15px;&quot;&gt;2.0&lt;br&gt;Search&lt;br&gt;Comics&lt;br&gt;&lt;/font&gt;" style="ellipse;whiteSpace=wrap;html=1;aspect=fixed;" parent="1" vertex="1">
          <mxGeometry x="520" y="600" width="100" height="100" as="geometry" />
        </mxCell>
        <mxCell id="RiBAbJlhbOir_Ix7eyt6-41" style="edgeStyle=orthogonalEdgeStyle;rounded=0;orthogonalLoop=1;jettySize=auto;html=1;entryX=0.5;entryY=1;entryDx=0;entryDy=0;" parent="1" source="RiBAbJlhbOir_Ix7eyt6-11" target="RiBAbJlhbOir_Ix7eyt6-14" edge="1">
          <mxGeometry relative="1" as="geometry" />
        </mxCell>
        <mxCell id="RiBAbJlhbOir_Ix7eyt6-11" value="&lt;font style=&quot;font-size: 15px;&quot;&gt;2.0&lt;br&gt;Get&lt;br&gt;Profile&lt;br&gt;&lt;/font&gt;" style="ellipse;whiteSpace=wrap;html=1;aspect=fixed;" parent="1" vertex="1">
          <mxGeometry x="550" y="725" width="100" height="100" as="geometry" />
        </mxCell>
        <mxCell id="RiBAbJlhbOir_Ix7eyt6-45" style="edgeStyle=orthogonalEdgeStyle;rounded=0;orthogonalLoop=1;jettySize=auto;html=1;entryX=0;entryY=0.5;entryDx=0;entryDy=0;" parent="1" source="RiBAbJlhbOir_Ix7eyt6-12" target="RiBAbJlhbOir_Ix7eyt6-15" edge="1">
          <mxGeometry relative="1" as="geometry">
            <Array as="points">
              <mxPoint x="100" y="245" />
            </Array>
          </mxGeometry>
        </mxCell>
        <mxCell id="RiBAbJlhbOir_Ix7eyt6-12" value="&lt;font style=&quot;font-size: 14px;&quot;&gt;Home Page&lt;/font&gt;" style="rounded=0;whiteSpace=wrap;html=1;" parent="1" vertex="1">
          <mxGeometry x="70" y="550" width="120" height="50" as="geometry" />
        </mxCell>
        <mxCell id="RiBAbJlhbOir_Ix7eyt6-38" style="edgeStyle=orthogonalEdgeStyle;rounded=0;orthogonalLoop=1;jettySize=auto;html=1;entryX=1;entryY=0.5;entryDx=0;entryDy=0;" parent="1" source="RiBAbJlhbOir_Ix7eyt6-13" target="RiBAbJlhbOir_Ix7eyt6-10" edge="1">
          <mxGeometry relative="1" as="geometry" />
        </mxCell>
        <mxCell id="RiBAbJlhbOir_Ix7eyt6-13" value="&lt;font style=&quot;font-size: 14px;&quot;&gt;Search Page&lt;/font&gt;" style="rounded=0;whiteSpace=wrap;html=1;" parent="1" vertex="1">
          <mxGeometry x="620" y="510" width="120" height="50" as="geometry" />
        </mxCell>
        <mxCell id="RiBAbJlhbOir_Ix7eyt6-14" value="&lt;font style=&quot;font-size: 14px;&quot;&gt;Profile Page&lt;/font&gt;" style="rounded=0;whiteSpace=wrap;html=1;" parent="1" vertex="1">
          <mxGeometry x="680" y="680" width="120" height="50" as="geometry" />
        </mxCell>
        <mxCell id="RiBAbJlhbOir_Ix7eyt6-49" style="edgeStyle=orthogonalEdgeStyle;rounded=0;orthogonalLoop=1;jettySize=auto;html=1;entryX=0.5;entryY=0;entryDx=0;entryDy=0;" parent="1" source="RiBAbJlhbOir_Ix7eyt6-15" target="RiBAbJlhbOir_Ix7eyt6-17" edge="1">
          <mxGeometry relative="1" as="geometry" />
        </mxCell>
        <mxCell id="RiBAbJlhbOir_Ix7eyt6-51" style="edgeStyle=orthogonalEdgeStyle;rounded=0;orthogonalLoop=1;jettySize=auto;html=1;entryX=0;entryY=0.5;entryDx=0;entryDy=0;" parent="1" source="RiBAbJlhbOir_Ix7eyt6-15" target="RiBAbJlhbOir_Ix7eyt6-16" edge="1">
          <mxGeometry relative="1" as="geometry" />
        </mxCell>
        <mxCell id="RiBAbJlhbOir_Ix7eyt6-15" value="&lt;font style=&quot;font-size: 14px;&quot;&gt;Issue Detail Page&lt;/font&gt;" style="rounded=0;whiteSpace=wrap;html=1;" parent="1" vertex="1">
          <mxGeometry x="335" y="220" width="140" height="50" as="geometry" />
        </mxCell>
        <mxCell id="RiBAbJlhbOir_Ix7eyt6-16" value="&lt;span style=&quot;font-size: 14px;&quot;&gt;Reader&lt;/span&gt;" style="rounded=0;whiteSpace=wrap;html=1;" parent="1" vertex="1">
          <mxGeometry x="670" y="370" width="110" height="50" as="geometry" />
        </mxCell>
        <mxCell id="RiBAbJlhbOir_Ix7eyt6-46" style="edgeStyle=orthogonalEdgeStyle;rounded=0;orthogonalLoop=1;jettySize=auto;html=1;" parent="1" source="RiBAbJlhbOir_Ix7eyt6-17" target="RiBAbJlhbOir_Ix7eyt6-3" edge="1">
          <mxGeometry relative="1" as="geometry">
            <Array as="points">
              <mxPoint x="405" y="620" />
              <mxPoint x="425" y="620" />
            </Array>
          </mxGeometry>
        </mxCell>
        <mxCell id="RiBAbJlhbOir_Ix7eyt6-48" style="edgeStyle=orthogonalEdgeStyle;rounded=0;orthogonalLoop=1;jettySize=auto;html=1;entryX=0.5;entryY=1;entryDx=0;entryDy=0;" parent="1" source="RiBAbJlhbOir_Ix7eyt6-17" target="RiBAbJlhbOir_Ix7eyt6-15" edge="1">
          <mxGeometry relative="1" as="geometry" />
        </mxCell>
        <mxCell id="RiBAbJlhbOir_Ix7eyt6-52" style="edgeStyle=orthogonalEdgeStyle;rounded=0;orthogonalLoop=1;jettySize=auto;html=1;entryX=0.5;entryY=0;entryDx=0;entryDy=0;" parent="1" source="RiBAbJlhbOir_Ix7eyt6-17" target="RiBAbJlhbOir_Ix7eyt6-18" edge="1">
          <mxGeometry relative="1" as="geometry">
            <Array as="points">
              <mxPoint x="520" y="380" />
              <mxPoint x="520" y="150" />
              <mxPoint x="660" y="150" />
            </Array>
          </mxGeometry>
        </mxCell>
        <mxCell id="RiBAbJlhbOir_Ix7eyt6-17" value="&lt;font style=&quot;font-size: 15px;&quot;&gt;3.0&lt;br&gt;Get&lt;br&gt;Details&lt;br&gt;&lt;/font&gt;" style="ellipse;whiteSpace=wrap;html=1;aspect=fixed;" parent="1" vertex="1">
          <mxGeometry x="355" y="330" width="100" height="100" as="geometry" />
        </mxCell>
        <mxCell id="RiBAbJlhbOir_Ix7eyt6-53" style="edgeStyle=orthogonalEdgeStyle;rounded=0;orthogonalLoop=1;jettySize=auto;html=1;entryX=0.5;entryY=0;entryDx=0;entryDy=0;" parent="1" source="RiBAbJlhbOir_Ix7eyt6-18" target="RiBAbJlhbOir_Ix7eyt6-16" edge="1">
          <mxGeometry relative="1" as="geometry" />
        </mxCell>
        <mxCell id="RiBAbJlhbOir_Ix7eyt6-18" value="&lt;font style=&quot;font-size: 15px;&quot;&gt;4.0&lt;br&gt;Get&lt;br&gt;Pages&lt;br&gt;&lt;/font&gt;" style="ellipse;whiteSpace=wrap;html=1;aspect=fixed;" parent="1" vertex="1">
          <mxGeometry x="610" y="180" width="100" height="100" as="geometry" />
        </mxCell>
        <mxCell id="RiBAbJlhbOir_Ix7eyt6-22" style="edgeStyle=orthogonalEdgeStyle;rounded=0;orthogonalLoop=1;jettySize=auto;html=1;entryX=0;entryY=0.5;entryDx=0;entryDy=0;" parent="1" source="RiBAbJlhbOir_Ix7eyt6-19" target="RiBAbJlhbOir_Ix7eyt6-21" edge="1">
          <mxGeometry relative="1" as="geometry" />
        </mxCell>
        <mxCell id="RiBAbJlhbOir_Ix7eyt6-19" value="&lt;font style=&quot;font-size: 14px;&quot;&gt;Login/Signup&lt;/font&gt;" style="rounded=0;whiteSpace=wrap;html=1;" parent="1" vertex="1">
          <mxGeometry x="50" y="920" width="120" height="50" as="geometry" />
        </mxCell>
        <mxCell id="RiBAbJlhbOir_Ix7eyt6-27" style="edgeStyle=orthogonalEdgeStyle;rounded=0;orthogonalLoop=1;jettySize=auto;html=1;entryX=0;entryY=1;entryDx=0;entryDy=0;" parent="1" source="RiBAbJlhbOir_Ix7eyt6-20" target="RiBAbJlhbOir_Ix7eyt6-3" edge="1">
          <mxGeometry relative="1" as="geometry">
            <Array as="points">
              <mxPoint x="270" y="920" />
              <mxPoint x="380" y="920" />
              <mxPoint x="380" y="821" />
            </Array>
          </mxGeometry>
        </mxCell>
        <mxCell id="RiBAbJlhbOir_Ix7eyt6-20" value="&lt;font style=&quot;font-size: 14px;&quot;&gt;&lt;span style=&quot;white-space: pre;&quot;&gt;&lt;span style=&quot;white-space: pre;&quot;&gt;	&lt;/span&gt; &lt;/span&gt;users&lt;/font&gt;" style="html=1;dashed=0;whiteSpace=wrap;shape=mxgraph.dfd.dataStoreID;align=left;spacingLeft=3;points=[[0,0],[0.5,0],[1,0],[0,0.5],[1,0.5],[0,1],[0.5,1],[1,1]];" parent="1" vertex="1">
          <mxGeometry x="215" y="1055" width="110" height="30" as="geometry" />
        </mxCell>
        <mxCell id="RiBAbJlhbOir_Ix7eyt6-23" style="edgeStyle=orthogonalEdgeStyle;rounded=0;orthogonalLoop=1;jettySize=auto;html=1;entryX=1;entryY=0.5;entryDx=0;entryDy=0;" parent="1" source="RiBAbJlhbOir_Ix7eyt6-21" target="RiBAbJlhbOir_Ix7eyt6-19" edge="1">
          <mxGeometry relative="1" as="geometry" />
        </mxCell>
        <mxCell id="RiBAbJlhbOir_Ix7eyt6-24" style="edgeStyle=orthogonalEdgeStyle;rounded=0;orthogonalLoop=1;jettySize=auto;html=1;entryX=0;entryY=0.5;entryDx=0;entryDy=0;" parent="1" source="RiBAbJlhbOir_Ix7eyt6-21" target="RiBAbJlhbOir_Ix7eyt6-3" edge="1">
          <mxGeometry relative="1" as="geometry" />
        </mxCell>
        <mxCell id="RiBAbJlhbOir_Ix7eyt6-21" value="&lt;font style=&quot;font-size: 15px;&quot;&gt;1.0&lt;br&gt;Get/Create&lt;br&gt;User&lt;br&gt;&lt;/font&gt;" style="ellipse;whiteSpace=wrap;html=1;aspect=fixed;" parent="1" vertex="1">
          <mxGeometry x="230" y="810" width="90" height="90" as="geometry" />
        </mxCell>
        <mxCell id="S0FRVUoe3EhO3HrPRmMu-1" value="&lt;font style=&quot;font-size: 25px;&quot;&gt;DFD Level - 1&lt;/font&gt;" style="text;html=1;align=center;verticalAlign=middle;resizable=0;points=[];autosize=1;strokeColor=none;fillColor=none;" vertex="1" parent="1">
          <mxGeometry x="330" y="33" width="180" height="40" as="geometry" />
        </mxCell>
      </root>
    </mxGraphModel>
  </diagram>
</mxfile>
